PathFileType	4	(X/Y/Z)	/Users/itak/Documents/Research/Walk-IL/dataset/trc/00561_00009.trc
DataRate	CameraRate	NumFrames	NumMarkers	Units	OrigDataRate	OrigDataStartFrame	OrigNumFrames
100.000000	100.000000	4	53	mm	100.000000	210	420
Frame#	Time	RPSI			LPSI			L3			STRN			T10			C7			CLAV			RBAK			LBAK			LSHO			LUPA			LAEL			LAOL			LWTS			LWPS			LFRA			LHPS			LHTS			RSHO			RUPA			RAEL			RAOL			RWTS			RWPS			RFRA			RIFD			RHTS			RHPS			RBHD			LFHD			RFHD			LBHD			LHIP			RHIP			RASI			LASI			LKNE			LTHI			LANK			LTIP			LTOE			LMT1			LMT5			LHEE			RKNE			RTHI			RANK			RTIP			RTOE			RMT1			RMT5			RHEE			LIFD			
		X1	Y1	Z1	X2	Y2	Z2	X3	Y3	Z3	X4	Y4	Z4	X5	Y5	Z5	X6	Y6	Z6	X7	Y7	Z7	X8	Y8	Z8	X9	Y9	Z9	X10	Y10	Z10	X11	Y11	Z11	X12	Y12	Z12	X13	Y13	Z13	X14	Y14	Z14	X15	Y15	Z15	X16	Y16	Z16	X17	Y17	Z17	X18	Y18	Z18	X19	Y19	Z19	X20	Y20	Z20	X21	Y21	Z21	X22	Y22	Z22	X23	Y23	Z23	X24	Y24	Z24	X25	Y25	Z25	X26	Y26	Z26	X27	Y27	Z27	X28	Y28	Z28	X29	Y29	Z29	X30	Y30	Z30	X31	Y31	Z31	X32	Y32	Z32	X33	Y33	Z33	X34	Y34	Z34	X35	Y35	Z35	X36	Y36	Z36	X37	Y37	Z37	X38	Y38	Z38	X39	Y39	Z39	X40	Y40	Z40	X41	Y41	Z41	X42	Y42	Z42	X43	Y43	Z43	X44	Y44	Z44	X45	Y45	Z45	X46	Y46	Z46	X47	Y47	Z47	X48	Y48	Z48	X49	Y49	Z49	X50	Y50	Z50	X51	Y51	Z51	X52	Y52	Z52	X53	Y53	Z53	

211	2.1	-1031.003784179688	955.1387939453125	-253.1620635986328	-973.2299194335938	949.4340209960938	-374.1626281738281	-952.1617431640625	1057.338989257812	-300.0608215332031	-662.3538818359375	1129.735473632812	-194.9541473388672	-904.1897583007812	1174.897827148438	-277.6929321289062	-752.5343017578125	1398.051391601562	-192.8188629150391	-634.0559692382812	1235.909790039062	-179.5095367431641	-886.2769165039062	1309.44873046875	-148.7644195556641	-772.966796875	1371.859619140625	-298.4272766113281	-649.6259155273438	1362.086669921875	-343.2762451171875	-683.2337646484375	1267.814086914062	-452.8638000488281	-752.390625	1083.779296875	-536.2772216796875	-851.4098510742188	1106.2958984375	-520.8717041015625	-736.2222900390625	838.1378784179688	-472.8745727539062	-742.3312377929688	823.1069946289062	-558.2716674804688	-745.9712524414062	998.1032104492188	-543.8075561523438	-731.4228515625	765.6419067382812	-555.2106323242188	-708.419189453125	766.183837890625	-489.9002380371094	-754.9846801757812	1330.026733398438	-37.88955688476562	-809.4425048828125	1275.872680664062	15.613205909729	-901.0596923828125	1003.380126953125	46.16455078125	-955.29052734375	993.0543212890625	14.33016586303711	-752.623046875	800.9636840820312	-1.907503724098206	-802.8553466796875	771.192626953125	56.84766006469727	-891.4754028320312	947.54150390625	48.3891487121582	-713.8001098632812	641.1295166015625	1.44061291217804	-706.8790283203125	722.4556274414062	22.90740966796875	-769.2565307617188	706.02392578125	63.25001907348633	-637.4653930664062	1523.417114257812	-79.99358367919922	-454.24658203125	1485.016479492188	-170.7615203857422	-509.8753662109375	1483.654052734375	-37.32798767089844	-569.068115234375	1520.34814453125	-230.4489135742188	-809.4818725585938	853.10888671875	-438.91064453125	-976.791748046875	872.2421875	-94.03435516357422	-872.5584106445312	889.3101806640625	-109.1369171142578	-762.6731567382812	867.21044921875	-359.408203125	-596.2186279296875	474.9857788085938	-311.4100646972656	-676.3766479492188	620.757080078125	-374.2569274902344	-953.7747802734375	170.8914794921875	-431.0120849609375	-785.2198486328125	318.2801208496094	-377.9007873535156	-806.4281005859375	55.63442230224609	-331.7481689453125	-873.522216796875	91.86693572998047	-312.2974853515625	-858.3976440429688	99.17306518554688	-417.711669921875	-1019.910339355469	211.8402862548828	-394.3121337890625	-832.6187133789062	438.5512390136719	-90.69259643554688	-920.7184448242188	723.1931762695312	-67.84259796142578	-1051.5732421875	31.93899917602539	-235.9745025634766	-858.7996215820312	293.5902709960938	-129.5466613769531	-830.9166259765625	39.0427360534668	-181.7966461181641	-872.183837890625	40.23054122924805	-245.7721252441406	-936.81689453125	36.85461044311523	-161.8109130859375	-1075.70751953125	22.0287971496582	-310.3524169921875	-747.013427734375	674.3401489257812	-483.0892639160156	
212	2.11	-1015.849487304688	955.7530517578125	-247.5524139404297	-957.7230224609375	949.43310546875	-368.2553100585938	-937.203125	1057.602172851562	-294.2810363769531	-647.3361206054688	1131.251831054688	-190.5032043457031	-889.5452880859375	1175.134887695312	-271.6184692382812	-738.6934204101562	1398.94970703125	-187.2039489746094	-619.1854858398438	1237.478393554688	-175.313232421875	-871.5733032226562	1309.410034179688	-142.3522491455078	-759.8924560546875	1372.614868164062	-292.4807739257812	-637.145751953125	1363.833740234375	-338.7871704101562	-672.49169921875	1270.544677734375	-448.6977233886719	-743.6463012695312	1088.082885742188	-533.3175048828125	-842.256591796875	1109.969848632812	-514.76513671875	-725.406494140625	841.072021484375	-474.7074279785156	-733.868408203125	827.6700439453125	-560.0768432617188	-737.216064453125	1002.424926757812	-542.5297241210938	-723.3164672851562	770.06982421875	-558.3865966796875	-698.7435913085938	769.0802001953125	-493.7156982421875	-739.4473876953125	1330.671752929688	-32.49234771728516	-792.9230346679688	1276.01123046875	21.4539737701416	-880.6152954101562	1002.692565917969	53.74540328979492	-935.0375366210938	991.4370727539062	22.6310920715332	-729.50146484375	802.8768310546875	3.230185508728027	-777.786865234375	772.2875366210938	63.10740661621094	-870.0350952148438	946.9508056640625	56.0084114074707	-687.4171142578125	643.7321166992188	5.910594940185547	-681.6588745117188	725.2720336914062	27.09133338928223	-742.8214721679688	707.65869140625	68.77958679199219	-623.0757446289062	1525.003540039062	-75.23059844970703	-440.1795959472656	1486.904541015625	-166.8013305664062	-495.2497253417969	1485.400024414062	-33.11082458496094	-555.3297119140625	1522.106567382812	-225.9931488037109	-793.12646484375	854.4874267578125	-432.0216064453125	-962.7399291992188	872.7382202148438	-88.17360687255859	-858.09033203125	889.7926025390625	-102.3890686035156	-747.0654296875	868.5488891601562	-352.2164001464844	-568.48974609375	485.9059143066406	-302.0608825683594	-653.9974975585938	628.3261108398438	-366.3251037597656	-907.4385986328125	157.2411651611328	-411.7796325683594	-748.5878295898438	316.5361328125	-363.9131774902344	-751.026611328125	56.2675666809082	-311.6958618164062	-820.4299926757812	87.4229736328125	-292.4765625	-806.7220458984375	93.21347045898438	-398.1700134277344	-976.2368774414062	194.1480712890625	-375.4169311523438	-828.3766479492188	435.6707763671875	-88.69718933105469	-909.1812133789062	722.343505859375	-62.93711471557617	-1051.340209960938	32.1610221862793	-236.2186431884766	-856.41943359375	291.2579345703125	-128.3983764648438	-830.8447265625	38.84600830078125	-181.5096282958984	-872.066650390625	40.23208999633789	-245.6228179931641	-936.838134765625	36.73625183105469	-161.6368560791016	-1075.424072265625	22.32563591003418	-310.6167602539062	-737.4100341796875	676.6889038085938	-488.0023498535156	
213	2.12	-1000.214904785156	956.5886840820312	-241.6759796142578	-941.8782348632812	949.6923828125	-362.1217651367188	-921.875	1058.110229492188	-288.2819213867188	-631.9260864257812	1133.161254882812	-186.1305694580078	-874.6102905273438	1175.617065429688	-265.3606262207031	-724.6876831054688	1400.21435546875	-181.546630859375	-604.0453491210938	1239.482421875	-171.1578826904297	-856.6212158203125	1309.689453125	-135.8202514648438	-746.6921997070312	1373.72607421875	-286.4844665527344	-624.5426025390625	1366.054321289062	-334.2692565917969	-661.5095825195312	1273.762817382812	-444.4719543457031	-734.4661865234375	1092.682495117188	-530.1656494140625	-832.598388671875	1113.785400390625	-508.5349731445312	-713.7152099609375	844.5367431640625	-475.9441833496094	-724.7997436523438	832.514404296875	-561.1622314453125	-727.9266967773438	1007.080017089844	-540.8939208984375	-714.6200561523438	774.7867431640625	-560.69482421875	-688.1929931640625	772.523193359375	-496.8775329589844	-723.6228637695312	1331.641967773438	-27.07649230957031	-776.0783081054688	1276.467651367188	27.29607582092285	-860.1793212890625	1002.482421875	61.16381454467773	-914.689453125	990.3668823242188	30.65869140625	-706.6224365234375	805.1642456054688	8.417927742004395	-753.1393432617188	773.80908203125	69.20022583007812	-848.7349853515625	946.82666015625	63.48817443847656	-661.5702514648438	646.72265625	10.37921714782715	-656.876220703125	728.3663940429688	31.42897415161133	-716.9303588867188	709.689453125	74.21266174316406	-608.6226806640625	1527.042114257812	-70.48837280273438	-426.0133056640625	1489.342529296875	-162.7989501953125	-480.5647888183594	1487.648071289062	-28.87753105163574	-541.479248046875	1524.358154296875	-221.5297546386719	-776.5421752929688	856.0922241210938	-425.1767883300781	-948.0293579101562	873.4118041992188	-82.15861511230469	-843.0151977539062	890.3824462890625	-95.62969207763672	-731.1118774414062	870.1246948242188	-345.1039123535156	-542.1366577148438	496.4340209960938	-293.3000793457031	-632.2595825195312	635.752197265625	-358.6938171386719	-859.697021484375	142.7991485595703	-391.8740234375	-711.9196166992188	314.0682373046875	-349.9791259765625	-695.2295532226562	57.32238388061523	-290.9787292480469	-766.5247802734375	83.36624908447266	-272.0071716308594	-754.2290649414062	86.90212249755859	-377.9111938476562	-930.8318481445312	175.6829223632812	-355.9090270996094	-824.5607299804688	433.1160583496094	-87.01724243164062	-897.2257080078125	721.7171020507812	-58.07353210449219	-1051.095703125	32.37428283691406	-236.4837646484375	-854.4029541015625	289.2433776855469	-127.4862594604492	-830.765380859375	38.6093864440918	-181.2887420654297	-871.9318237304688	40.2043571472168	-245.5231628417969	-936.8522338867188	36.62137603759766	-161.4881744384766	-1075.17626953125	22.62074089050293	-310.9255065917969	-726.8145751953125	679.6644287109375	-492.3004150390625	
214	2.13	-984.0438842773438	957.682373046875	-235.49658203125	-925.6499633789062	950.2517700195312	-355.7365417480469	-906.1332397460938	1058.884887695312	-282.0242309570312	-616.0951538085938	1135.49072265625	-181.8239898681641	-859.3567504882812	1176.373779296875	-258.9054870605469	-710.48974609375	1401.878662109375	-175.8430480957031	-588.6138305664062	1241.962524414062	-167.04345703125	-841.4033203125	1310.321899414062	-129.1660614013672	-733.3446044921875	1375.221435546875	-280.4287109375	-611.8025512695312	1368.775024414062	-329.7174377441406	-650.2799072265625	1277.482543945312	-440.1735229492188	-724.779296875	1097.53369140625	-526.7777709960938	-822.3792114257812	1117.729858398438	-502.1958312988281	-701.15478515625	848.4907836914062	-476.5366821289062	-715.04833984375	837.5848999023438	-561.47802734375	-718.0530395507812	1012.017272949219	-538.84912109375	-705.2041015625	779.7459106445312	-562.076171875	-676.6627197265625	776.5181884765625	-499.3051452636719	-707.51513671875	1332.96875	-21.64542579650879	-758.91455078125	1277.2841796875	33.12264633178711	-839.78369140625	1002.779052734375	68.39984893798828	-894.3170776367188	989.8794555664062	38.42097473144531	-684.0167236328125	807.8309936523438	13.65511035919189	-728.993408203125	775.7582397460938	75.12309265136719	-827.6007080078125	947.2039794921875	70.79496002197266	-636.3285522460938	650.1033935546875	14.8485631942749	-632.5796508789062	731.7308349609375	35.91659545898438	-691.658935546875	712.110595703125	79.55491638183594	-594.0794677734375	1529.564086914062	-65.76015472412109	-411.7189636230469	1492.35595703125	-158.7296142578125	-465.8049926757812	1490.42236328125	-24.60783958435059	-527.471923828125	1527.138916015625	-217.0474243164062	-759.7215576171875	857.9415893554688	-418.3701782226562	-932.6258544921875	874.2918701171875	-75.95928955078125	-827.2816772460938	891.0918579101562	-88.86790466308594	-714.7758178710938	871.9198608398438	-338.0830078125	-517.2072143554688	506.3107299804688	-285.19677734375	-611.171142578125	642.871337890625	-351.3963928222656	-810.6898193359375	128.0101318359375	-371.3320617675781	-675.3274536132812	310.9571228027344	-336.1471862792969	-639.3110961914062	58.91925811767578	-269.9075622558594	-712.0798950195312	79.90576934814453	-251.1108703613281	-701.1141357421875	80.52685546875	-357.0873413085938	-883.8181762695312	156.9246215820312	-335.7274780273438	-821.2782592773438	430.9906616210938	-85.62947845458984	-884.9020385742188	721.3486328125	-53.22980499267578	-1050.8623046875	32.58213424682617	-236.74072265625	-852.8359375	287.6441955566406	-126.7540893554688	-830.6934204101562	38.33977890014648	-181.1343536376953	-871.8125	40.16291427612305	-245.4437561035156	-936.8758544921875	36.49725723266602	-161.3410339355469	-1074.994873046875	22.98471069335938	-311.2455139160156	-715.0267944335938	683.3306884765625	-495.9140930175781	
